<svg xmlns="http://www.w3.org/2000/svg" viewBox="0 0 900 520"><rect width="900" height="520" rx="34" fill="#06101d"/><g fill="#0b1b31" stroke="#1e4a68"><rect x="50" y="50" width="230" height="130" rx="18"/><rect x="310" y="50" width="540" height="130" rx="18"/><rect x="50" y="210" width="800" height="260" rx="18"/></g><g stroke="#00f5ff" stroke-width="4" fill="none"><path d="M85 140c30-70 80 40 115-20s50 20 70-30"/><path d="M350 140h450"/><path d="M350 100h260"/><path d="M90 395c130-120 270 60 420-40s210 20 300-90"/></g><g fill="#00ff9d"><circle cx="90" cy="92" r="8"/><circle cx="350" cy="92" r="8"/><circle cx="90" cy="250" r="8"/></g><g fill="#dff7ff" font-family="Arial" font-size="28" font-weight="700"><text x="80" y="305">Security Operations Center</text><text x="80" y="350" font-size="20" fill="#9db4c8">Monitoring • Detection • Response</text></g></svg>
