<svg xmlns="http://www.w3.org/2000/svg" viewBox="0 0 1600 900"><defs><linearGradient id="g" x1="0" x2="1"><stop stop-color="#00f5ff" stop-opacity=".2"/><stop offset="1" stop-color="#00ff9d" stop-opacity=".05"/></linearGradient></defs><rect width="1600" height="900" fill="#020611"/><g stroke="url(#g)" stroke-width="1"><path d="M0 100H1600M0 200H1600M0 300H1600M0 400H1600M0 500H1600M0 600H1600M0 700H1600M0 800H1600"/><path d="M100 0V900M200 0V900M300 0V900M400 0V900M500 0V900M600 0V900M700 0V900M800 0V900M900 0V900M1000 0V900M1100 0V900M1200 0V900M1300 0V900M1400 0V900M1500 0V900"/></g><circle cx="1200" cy="260" r="220" fill="#00f5ff" opacity=".12"/><circle cx="280" cy="690" r="260" fill="#7c5cff" opacity=".10"/></svg>
