<svg xmlns="http://www.w3.org/2000/svg" viewBox="0 0 1400 900"><rect width="1400" height="900" fill="#020b13"/><g stroke="#00ffd1" opacity=".55"><path d="M700 450 L80 90"/><path d="M700 450 L139 187"/><path d="M700 450 L198 284"/><path d="M700 450 L257 381"/><path d="M700 450 L316 478"/><path d="M700 450 L375 575"/><path d="M700 450 L434 672"/><path d="M700 450 L493 769"/><path d="M700 450 L552 146"/><path d="M700 450 L611 243"/><path d="M700 450 L670 340"/><path d="M700 450 L729 437"/><path d="M700 450 L788 534"/><path d="M700 450 L847 631"/><path d="M700 450 L906 728"/><path d="M700 450 L965 105"/><path d="M700 450 L1024 202"/><path d="M700 450 L1083 299"/><path d="M700 450 L1142 396"/><path d="M700 450 L1201 493"/><path d="M700 450 L1260 590"/><path d="M700 450 L1319 687"/><path d="M700 450 L138 784"/><path d="M700 450 L197 161"/><path d="M700 450 L256 258"/><path d="M700 450 L315 355"/><path d="M700 450 L374 452"/><path d="M700 450 L433 549"/><path d="M700 450 L492 646"/><path d="M700 450 L551 743"/><path d="M700 450 L610 120"/><path d="M700 450 L669 217"/><path d="M700 450 L728 314"/><path d="M700 450 L787 411"/><path d="M700 450 L846 508"/><path d="M700 450 L905 605"/><path d="M700 450 L964 702"/><path d="M700 450 L1023 799"/><path d="M700 450 L1082 176"/><path d="M700 450 L1141 273"/><path d="M700 450 L1200 370"/><path d="M700 450 L1259 467"/><path d="M700 450 L1318 564"/><path d="M700 450 L137 661"/><path d="M700 450 L196 758"/><path d="M700 450 L255 135"/><path d="M700 450 L314 232"/><path d="M700 450 L373 329"/><path d="M700 450 L432 426"/><path d="M700 450 L491 523"/><path d="M700 450 L550 620"/><path d="M700 450 L609 717"/><path d="M700 450 L668 94"/><path d="M700 450 L727 191"/><path d="M700 450 L786 288"/><path d="M700 450 L845 385"/><path d="M700 450 L904 482"/><path d="M700 450 L963 579"/><path d="M700 450 L1022 676"/><path d="M700 450 L1081 773"/><path d="M700 450 L1140 150"/><path d="M700 450 L1199 247"/><path d="M700 450 L1258 344"/><path d="M700 450 L1317 441"/><path d="M700 450 L136 538"/><path d="M700 450 L195 635"/><path d="M700 450 L254 732"/><path d="M700 450 L313 109"/><path d="M700 450 L372 206"/><path d="M700 450 L431 303"/></g><g fill="#0ff"><circle cx="80" cy="90" r="8"/><circle cx="139" cy="187" r="8"/><circle cx="198" cy="284" r="8"/><circle cx="257" cy="381" r="8"/><circle cx="316" cy="478" r="8"/><circle cx="375" cy="575" r="8"/><circle cx="434" cy="672" r="8"/><circle cx="493" cy="769" r="8"/><circle cx="552" cy="146" r="8"/><circle cx="611" cy="243" r="8"/><circle cx="670" cy="340" r="8"/><circle cx="729" cy="437" r="8"/><circle cx="788" cy="534" r="8"/><circle cx="847" cy="631" r="8"/><circle cx="906" cy="728" r="8"/><circle cx="965" cy="105" r="8"/><circle cx="1024" cy="202" r="8"/><circle cx="1083" cy="299" r="8"/><circle cx="1142" cy="396" r="8"/><circle cx="1201" cy="493" r="8"/><circle cx="1260" cy="590" r="8"/><circle cx="1319" cy="687" r="8"/><circle cx="138" cy="784" r="8"/><circle cx="197" cy="161" r="8"/><circle cx="256" cy="258" r="8"/><circle cx="315" cy="355" r="8"/><circle cx="374" cy="452" r="8"/><circle cx="433" cy="549" r="8"/><circle cx="492" cy="646" r="8"/><circle cx="551" cy="743" r="8"/><circle cx="610" cy="120" r="8"/><circle cx="669" cy="217" r="8"/><circle cx="728" cy="314" r="8"/><circle cx="787" cy="411" r="8"/><circle cx="846" cy="508" r="8"/><circle cx="905" cy="605" r="8"/><circle cx="964" cy="702" r="8"/><circle cx="1023" cy="799" r="8"/><circle cx="1082" cy="176" r="8"/><circle cx="1141" cy="273" r="8"/><circle cx="1200" cy="370" r="8"/><circle cx="1259" cy="467" r="8"/><circle cx="1318" cy="564" r="8"/><circle cx="137" cy="661" r="8"/><circle cx="196" cy="758" r="8"/><circle cx="255" cy="135" r="8"/><circle cx="314" cy="232" r="8"/><circle cx="373" cy="329" r="8"/><circle cx="432" cy="426" r="8"/><circle cx="491" cy="523" r="8"/><circle cx="550" cy="620" r="8"/><circle cx="609" cy="717" r="8"/><circle cx="668" cy="94" r="8"/><circle cx="727" cy="191" r="8"/><circle cx="786" cy="288" r="8"/><circle cx="845" cy="385" r="8"/><circle cx="904" cy="482" r="8"/><circle cx="963" cy="579" r="8"/><circle cx="1022" cy="676" r="8"/><circle cx="1081" cy="773" r="8"/><circle cx="1140" cy="150" r="8"/><circle cx="1199" cy="247" r="8"/><circle cx="1258" cy="344" r="8"/><circle cx="1317" cy="441" r="8"/><circle cx="136" cy="538" r="8"/><circle cx="195" cy="635" r="8"/><circle cx="254" cy="732" r="8"/><circle cx="313" cy="109" r="8"/><circle cx="372" cy="206" r="8"/><circle cx="431" cy="303" r="8"/></g><circle cx="700" cy="450" r="95" fill="#071a2a" stroke="#00ffd1" stroke-width="10"/><text x="640" y="468" font-family="Arial" font-size="48" fill="#fff">AI</text><text x="85" y="110" font-family="Arial" font-size="52" fill="#fff">AI Infrastructure & GPU Systems</text></svg>