<svg xmlns="http://www.w3.org/2000/svg" viewBox="0 0 1600 900"><defs><linearGradient id="bg" x1="0" x2="1"><stop stop-color="#020711"/><stop offset=".55" stop-color="#063342"/><stop offset="1" stop-color="#020711"/><radialGradient id="r" cx="70%" cy="35%" r="45%"><stop stop-color="#00f5d4" stop-opacity=".55"/><stop offset="1" stop-color="#00f5d4" stop-opacity="0"/></radialGradient></defs><rect width="1600" height="900" fill="#020711"/><rect width="1600" height="900" fill="url(#r)"/><g opacity=".85"><path d="M820 120h110v670H820zM970 80h120v710H970zM1130 140h115v650h-115zM1280 90h120v700h-120z" fill="#071a2b" stroke="#2af5dd" stroke-opacity=".22"/><g stroke="#35a7ff" stroke-opacity=".35"><path d="M0 790h1600M0 690h1600M0 590h1600M0 490h1600"/><path d="M780 0v900M940 0v900M1100 0v900M1260 0v900M1420 0v900"/></g><g fill="#00f5d4"><circle cx="860" cy="180" r="5"/><circle cx="1018" cy="170" r="5"/><circle cx="1170" cy="250" r="5"/><circle cx="1340" cy="220" r="5"/></g></g></svg>
