<svg xmlns="http://www.w3.org/2000/svg" width="1600" height="900" viewBox="0 0 1600 900"><defs><linearGradient id="g" x1="0" x2="1"><stop stop-color="#02101f"/><stop offset=".55" stop-color="#062a46"/><stop offset="1" stop-color="#020711"/></linearGradient><filter id="b"><feGaussianBlur stdDeviation="10"/></filter></defs><rect width="1600" height="900" fill="url(#g)"/><g opacity=".42" stroke="#00f5ff" stroke-width="1"><path d="M0 120h1600M0 240h1600M0 360h1600M0 480h1600M0 600h1600M0 720h1600M120 0v900M240 0v900M360 0v900M480 0v900M600 0v900M720 0v900M840 0v900M960 0v900M1080 0v900M1200 0v900M1320 0v900M1440 0v900"/></g><g transform="translate(220 140)"><g fill="#071827" stroke="#19dfff" stroke-opacity=".45"><rect x="0" y="0" width="230" height="620" rx="18"/><rect x="300" y="40" width="230" height="580" rx="18"/><rect x="600" y="0" width="230" height="620" rx="18"/><rect x="900" y="50" width="230" height="570" rx="18"/></g><g fill="#00ff9d"><circle cx="42" cy="54" r="7"/><circle cx="342" cy="96" r="7"/><circle cx="642" cy="54" r="7"/><circle cx="942" cy="104" r="7"/></g><g stroke="#6fb7ff" stroke-opacity=".5"><path d="M30 110h170M30 165h170M30 220h170M330 150h170M330 205h170M630 110h170M630 165h170M930 160h170M930 215h170"/></g></g><circle cx="1240" cy="220" r="210" fill="#00f5ff" opacity=".16" filter="url(#b)"/><circle cx="370" cy="620" r="190" fill="#00ff9d" opacity=".08" filter="url(#b)"/></svg>
