<svg xmlns="http://www.w3.org/2000/svg" viewBox="0 0 1400 900"><defs><linearGradient id="g" x1="0" x2="1"><stop stop-color="#04111f"/><stop offset="1" stop-color="#062d46"/></linearGradient><filter id="glow"><feGaussianBlur stdDeviation="5" result="b"/><feMerge><feMergeNode in="b"/><feMergeNode in="SourceGraphic"/></feMerge></filter></defs><rect fill="url(#g)" width="1400" height="900"/><g opacity=".5" stroke="#11f5d1"><path d="M0 780h1400M0 650h1400M0 520h1400"/><path d="M160 0v900M360 0v900M580 0v900M820 0v900M1040 0v900M1240 0v900"/></g><g filter="url(#glow)"><rect x="120" y="120" width="90" height="560" rx="10" fill="#071827" stroke="#23f7d4" opacity=".78"/><circle cx="145" cy="170" r="7" fill="#00ffd1"/><circle cx="180" cy="170+(i%2)*40" r="7" fill="#1aa7ff"/><rect x="270" y="160" width="90" height="560" rx="10" fill="#071827" stroke="#23f7d4" opacity=".78"/><circle cx="295" cy="210" r="7" fill="#00ffd1"/><circle cx="330" cy="170+(i%2)*40" r="7" fill="#1aa7ff"/><rect x="420" y="120" width="90" height="560" rx="10" fill="#071827" stroke="#23f7d4" opacity=".78"/><circle cx="445" cy="170" r="7" fill="#00ffd1"/><circle cx="480" cy="170+(i%2)*40" r="7" fill="#1aa7ff"/><rect x="570" y="160" width="90" height="560" rx="10" fill="#071827" stroke="#23f7d4" opacity=".78"/><circle cx="595" cy="210" r="7" fill="#00ffd1"/><circle cx="630" cy="170+(i%2)*40" r="7" fill="#1aa7ff"/><rect x="720" y="120" width="90" height="560" rx="10" fill="#071827" stroke="#23f7d4" opacity=".78"/><circle cx="745" cy="170" r="7" fill="#00ffd1"/><circle cx="780" cy="170+(i%2)*40" r="7" fill="#1aa7ff"/><rect x="870" y="160" width="90" height="560" rx="10" fill="#071827" stroke="#23f7d4" opacity=".78"/><circle cx="895" cy="210" r="7" fill="#00ffd1"/><circle cx="930" cy="170+(i%2)*40" r="7" fill="#1aa7ff"/><rect x="1020" y="120" width="90" height="560" rx="10" fill="#071827" stroke="#23f7d4" opacity=".78"/><circle cx="1045" cy="170" r="7" fill="#00ffd1"/><circle cx="1080" cy="170+(i%2)*40" r="7" fill="#1aa7ff"/><rect x="1170" y="160" width="90" height="560" rx="10" fill="#071827" stroke="#23f7d4" opacity=".78"/><circle cx="1195" cy="210" r="7" fill="#00ffd1"/><circle cx="1230" cy="170+(i%2)*40" r="7" fill="#1aa7ff"/></g><text x="80" y="830" font-family="Arial" font-size="38" fill="#dffcff" opacity=".7">SECURE INFRASTRUCTURE • DATA CENTER • MONITORING</text></svg>