<svg xmlns="http://www.w3.org/2000/svg" viewBox="0 0 1200 700"><defs><linearGradient id="g" x1="0" x2="1"><stop stop-color="#06112a"/><stop offset="1" stop-color="#0a3b70"/></linearGradient></defs><rect width="1200" height="700" fill="url(#g)"/><g opacity=".85" fill="none" stroke="#17d9ff" stroke-width="2"><path d="M80 610h1040M150 120v490M1050 120v490"/><path d="M230 160h220v400H230zM500 130h220v430H500zM770 160h220v400H770z"/><path d="M250 210h180M250 270h180M250 330h180M250 390h180M520 190h180M520 250h180M520 310h180M520 370h180M790 210h180M790 270h180M790 330h180M790 390h180"/></g><g fill="#22c55e"><circle cx="280" cy="210" r="5"/><circle cx="550" cy="250" r="5"/><circle cx="820" cy="330" r="5"/></g></svg>
