<svg xmlns="http://www.w3.org/2000/svg" viewBox="0 0 1200 800"><defs><linearGradient id="bg" x1="0" y1="0" x2="1" y2="1"><stop stop-color="#03111f"/><stop offset=".45" stop-color="#062b36"/><stop offset="1" stop-color="#061226"/></linearGradient><linearGradient id="rack" x1="0" y1="0" x2="0" y2="1"><stop stop-color="#0f2d46"/><stop offset="1" stop-color="#061424"/></linearGradient><filter id="glow"><feGaussianBlur stdDeviation="4" result="b"/><feMerge><feMergeNode in="b"/><feMergeNode in="SourceGraphic"/></feMerge></filter></defs><rect width="1200" height="800" fill="url(#bg)"/><g opacity=".32" stroke="#16f7ff" stroke-width="1"><path d="M0 160h1200M0 260h1200M0 360h1200M0 460h1200M0 560h1200M0 660h1200"/><path d="M120 0v800M240 0v800M360 0v800M480 0v800M600 0v800M720 0v800M840 0v800M960 0v800M1080 0v800"/></g><g transform="translate(90 110)"><g opacity=".92"><rect x="0" y="0" width="190" height="560" rx="18" fill="url(#rack)" stroke="#1ba6d2"/><rect x="230" y="20" width="190" height="540" rx="18" fill="url(#rack)" stroke="#1ba6d2"/><rect x="460" y="-20" width="190" height="580" rx="18" fill="url(#rack)" stroke="#1ba6d2"/><rect x="690" y="25" width="190" height="535" rx="18" fill="url(#rack)" stroke="#1ba6d2"/></g><g fill="#0b1b2b" stroke="#2ddcff"><script type="application/ecmascript"></script><g transform="translate(22 35)"><rect width="146" height="34" rx="6"/><rect y="58" width="146" height="34" rx="6"/><rect y="116" width="146" height="34" rx="6"/><rect y="174" width="146" height="34" rx="6"/><rect y="232" width="146" height="34" rx="6"/><rect y="290" width="146" height="34" rx="6"/><rect y="348" width="146" height="34" rx="6"/><rect y="406" width="146" height="34" rx="6"/></g><g transform="translate(252 60)"><rect width="146" height="34" rx="6"/><rect y="58" width="146" height="34" rx="6"/><rect y="116" width="146" height="34" rx="6"/><rect y="174" width="146" height="34" rx="6"/><rect y="232" width="146" height="34" rx="6"/><rect y="290" width="146" height="34" rx="6"/><rect y="348" width="146" height="34" rx="6"/></g><g transform="translate(482 35)"><rect width="146" height="34" rx="6"/><rect y="58" width="146" height="34" rx="6"/><rect y="116" width="146" height="34" rx="6"/><rect y="174" width="146" height="34" rx="6"/><rect y="232" width="146" height="34" rx="6"/><rect y="290" width="146" height="34" rx="6"/><rect y="348" width="146" height="34" rx="6"/><rect y="406" width="146" height="34" rx="6"/></g><g transform="translate(712 60)"><rect width="146" height="34" rx="6"/><rect y="58" width="146" height="34" rx="6"/><rect y="116" width="146" height="34" rx="6"/><rect y="174" width="146" height="34" rx="6"/><rect y="232" width="146" height="34" rx="6"/><rect y="290" width="146" height="34" rx="6"/><rect y="348" width="146" height="34" rx="6"/></g></g><g filter="url(#glow)" fill="#00ff99"><circle cx="145" cy="52" r="5"/><circle cx="375" cy="77" r="5"/><circle cx="605" cy="52" r="5"/><circle cx="835" cy="77" r="5"/><circle cx="145" cy="226" r="5"/><circle cx="375" cy="251" r="5"/><circle cx="605" cy="226" r="5"/><circle cx="835" cy="251" r="5"/><circle cx="145" cy="400" r="5"/><circle cx="375" cy="425" r="5"/><circle cx="605" cy="400" r="5"/><circle cx="835" cy="425" r="5"/></g></g><path d="M0 710C220 620 420 620 620 680s390 80 580-30v150H0z" fill="#010815" opacity=".7"/></svg>