<svg xmlns="http://www.w3.org/2000/svg" viewBox="0 0 1400 900"><rect width="1400" height="900" fill="#030914"/><defs><radialGradient id="r" cx="50%" cy="40%" r="70%"><stop stop-color="#073a50"/><stop offset="1" stop-color="#030914"/></radialGradient></defs><rect width="1400" height="900" fill="url(#r)"/><g stroke="#00ffd1" fill="none" opacity=".4"><circle cx="700" cy="450" r="80"/><circle cx="700" cy="450" r="150"/><circle cx="700" cy="450" r="220"/><circle cx="700" cy="450" r="290"/><circle cx="700" cy="450" r="360"/><circle cx="700" cy="450" r="430"/><circle cx="700" cy="450" r="500"/></g><g fill="#00ffd1"><circle cx="100" cy="160" r="5"/><circle cx="237" cy="249" r="5"/><circle cx="374" cy="338" r="5"/><circle cx="511" cy="427" r="5"/><circle cx="648" cy="516" r="5"/><circle cx="785" cy="605" r="5"/><circle cx="922" cy="694" r="5"/><circle cx="1059" cy="223" r="5"/><circle cx="1196" cy="312" r="5"/><circle cx="133" cy="401" r="5"/><circle cx="270" cy="490" r="5"/><circle cx="407" cy="579" r="5"/><circle cx="544" cy="668" r="5"/><circle cx="681" cy="197" r="5"/><circle cx="818" cy="286" r="5"/><circle cx="955" cy="375" r="5"/><circle cx="1092" cy="464" r="5"/><circle cx="1229" cy="553" r="5"/><circle cx="166" cy="642" r="5"/><circle cx="303" cy="171" r="5"/><circle cx="440" cy="260" r="5"/><circle cx="577" cy="349" r="5"/><circle cx="714" cy="438" r="5"/><circle cx="851" cy="527" r="5"/><circle cx="988" cy="616" r="5"/><circle cx="1125" cy="705" r="5"/><circle cx="1262" cy="234" r="5"/><circle cx="199" cy="323" r="5"/><circle cx="336" cy="412" r="5"/><circle cx="473" cy="501" r="5"/><circle cx="610" cy="590" r="5"/><circle cx="747" cy="679" r="5"/><circle cx="884" cy="208" r="5"/><circle cx="1021" cy="297" r="5"/><circle cx="1158" cy="386" r="5"/></g><path d="M120 740 C350 620 460 690 650 520 S1020 260 1280 340" stroke="#00ffd1" stroke-width="5" fill="none"/><text x="90" y="110" font-family="Arial" font-size="50" fill="#e9fbff">Security Operations Center</text></svg>