<svg xmlns="http://www.w3.org/2000/svg" viewBox="0 0 900 520"><defs><linearGradient id="g" x1="0" x2="1"><stop stop-color="#00d4ff"/><stop offset="1" stop-color="#7c3cff"/></linearGradient></defs><rect width="900" height="520" fill="#050816"/><g opacity=".25" stroke="#00d4ff"><path d="M0 420h900M0 340h900M0 260h900M0 180h900M120 0v520M300 0v520M480 0v520M660 0v520M840 0v520"/></g><g fill="#0d182c" stroke="url(#g)" stroke-width="3"><rect x="90" y="75" width="150" height="370" rx="18"/><rect x="285" y="55" width="150" height="410" rx="18"/><rect x="480" y="75" width="150" height="370" rx="18"/><rect x="675" y="55" width="150" height="410" rx="18"/></g><g fill="#00d4ff"><circle cx="130" cy="120" r="6"/><circle cx="325" cy="110" r="6"/><circle cx="520" cy="120" r="6"/><circle cx="715" cy="110" r="6"/></g><g stroke="#22ffb5" stroke-width="5"><path d="M115 185h100M115 235h100M115 285h100M310 175h100M310 225h100M310 275h100M505 185h100M505 235h100M505 285h100M700 175h100M700 225h100M700 275h100"/></g></svg>
