<svg xmlns="http://www.w3.org/2000/svg" viewBox="0 0 900 520"><rect width="900" height="520" fill="#06101d" rx="34"/><defs><linearGradient id="g" x1="0" x2="1"><stop stop-color="#00f5ff"/><stop offset="1" stop-color="#00ff9d"/></linearGradient></defs><g fill="#0b1b31" stroke="#255371" stroke-width="3"><rect x="80" y="70" width="130" height="380" rx="16"/><rect x="250" y="70" width="130" height="380" rx="16"/><rect x="520" y="70" width="130" height="380" rx="16"/><rect x="690" y="70" width="130" height="380" rx="16"/></g><g stroke="url(#g)" stroke-width="5"><path d="M115 125h60M115 170h60M115 215h60M115 260h60M115 305h60M115 350h60"/><path d="M285 125h60M285 170h60M285 215h60M285 260h60M285 305h60M285 350h60"/><path d="M555 125h60M555 170h60M555 215h60M555 260h60M555 305h60M555 350h60"/><path d="M725 125h60M725 170h60M725 215h60M725 260h60M725 305h60M725 350h60"/></g><path d="M410 450V70" stroke="#00f5ff" opacity=".3"/><path d="M450 450V70" stroke="#00f5ff" opacity=".3"/><text x="450" y="488" text-anchor="middle" fill="#dff7ff" font-family="Arial" font-size="26" font-weight="700">Enterprise Infrastructure</text></svg>
